<svg width="100" height="100" viewBox="0 0 100 100" fill="none" xmlns="http://www.w3.org/2000/svg">
<path d="M2.88704 41.7539C4.47492 41.7539 5.77409 36.5211 5.77409 30.0613C5.77409 23.6016 4.47492 18.3688 2.88704 18.3688C1.29917 18.3688 0 23.6016 0 30.0613C0 36.5211 1.29917 41.7539 2.88704 41.7539Z" fill="#11001C"/>
<path d="M87.6578 6.49585C86.1421 6.49585 84.8069 9.85204 83.8686 15.2292C82.3529 6.02671 79.935 0 77.1923 0C73.9444 0 71.0934 8.48069 69.7582 20.8228C68.4229 11.873 66.4381 6.13497 64.2367 6.13497C61.1331 6.13497 58.4626 17.3944 57.4882 33.0927C55.6477 25.0451 52.9772 19.9928 50.018 19.9928C47.0588 19.9928 44.3883 25.0451 42.5478 33.0927C41.5373 17.3944 38.9029 6.13497 35.7632 6.13497C33.5258 6.13497 31.5409 11.873 30.2418 20.8589C28.9065 8.48069 26.0916 0 22.8076 0C20.0649 0 17.6109 6.0267 16.1313 15.2652C15.193 9.88813 13.8578 6.49585 12.3421 6.49585C9.52721 6.49585 7.25366 18.2245 7.25366 32.6597C7.25366 47.0949 9.52721 58.7874 12.3421 58.7874C13.4969 58.7874 14.5795 56.8026 15.4096 53.4825C16.7448 65.6803 19.5597 74.0527 22.8076 74.0527C25.3338 74.0527 27.5712 69.0365 29.0869 61.0971C30.1335 76.1819 32.7318 86.9 35.7632 86.9C37.6759 86.9 39.4081 82.6416 40.7073 75.7488C42.2591 90.0036 45.8318 100 50.018 100C54.2042 100 57.7769 90.0036 59.3287 75.7488C60.6279 82.6416 62.3601 86.9 64.2728 86.9C67.3042 86.9 69.9025 76.1819 70.9491 61.0971C72.4648 69.0365 74.7022 74.0527 77.2284 74.0527C80.4763 74.0527 83.2912 65.6803 84.6264 53.4825C85.4926 56.8026 86.5391 58.7874 87.6939 58.7874C90.5088 58.7874 92.7823 47.0949 92.7823 32.6597C92.7102 18.2245 90.4366 6.49585 87.6578 6.49585Z" fill="#11001C"/>
<path d="M97.1129 41.7539C98.7007 41.7539 99.9999 36.5211 99.9999 30.0613C99.9999 23.6016 98.7007 18.3688 97.1129 18.3688C95.525 18.3688 94.2258 23.6016 94.2258 30.0613C94.2258 36.5211 95.525 41.7539 97.1129 41.7539Z" fill="#11001C"/>
</svg>
