<svg width="100" height="100" viewBox="0 0 100 100" fill="none" xmlns="http://www.w3.org/2000/svg">
<path d="M50 0C36.7392 0 24.0215 5.26784 14.6447 14.6447C5.26784 24.0215 0 36.7392 0 50C0 63.2608 5.26784 75.9785 14.6447 85.3553C24.0215 94.7322 36.7392 100 50 100C63.2608 100 75.9785 94.7322 85.3553 85.3553C94.7322 75.9785 100 63.2608 100 50C100 36.7392 94.7322 24.0215 85.3553 14.6447C75.9785 5.26784 63.2608 0 50 0ZM72.9313 72.1125C72.4982 72.8164 71.8039 73.3201 71.0004 73.5134C70.1969 73.7066 69.3495 73.5737 68.6437 73.1438C56.9 65.975 42.125 64.35 24.7188 68.3312C23.9123 68.5152 23.0658 68.3714 22.3655 67.9312C21.6652 67.4911 21.1684 66.7908 20.9844 65.9844C20.8004 65.1779 20.9443 64.3315 21.3844 63.6311C21.8245 62.9308 22.5248 62.434 23.3313 62.25C42.3813 57.9 58.7188 59.7688 71.8938 67.825C72.5987 68.257 73.1037 68.9508 73.2981 69.7544C73.4926 70.558 73.3607 71.406 72.9313 72.1125ZM79.05 58.5C78.5085 59.3807 77.6395 60.0104 76.634 60.2507C75.6284 60.4909 74.5686 60.3221 73.6875 59.7812C60.25 51.525 39.7625 49.1313 23.8625 53.9563C22.8947 54.1862 21.8757 54.0383 21.0132 53.5427C20.1507 53.0471 19.5098 52.2411 19.2212 51.2892C18.9326 50.3373 19.018 49.3111 19.46 48.4199C19.9021 47.5288 20.6674 46.8399 21.6 46.4938C39.7562 40.9875 62.3313 43.6562 77.7625 53.1375C78.6443 53.6779 79.2753 54.5465 79.5167 55.5521C79.7582 56.5578 79.5903 57.6181 79.05 58.5ZM79.575 44.325C63.4625 34.75 36.875 33.8687 21.4875 38.5375C20.3007 38.8972 19.0195 38.7707 17.926 38.1858C16.8324 37.6009 16.016 36.6056 15.6563 35.4187C15.2966 34.2319 15.4231 32.9508 16.0079 31.8572C16.5928 30.7636 17.5882 29.9472 18.775 29.5875C36.4313 24.2313 65.7938 25.2625 84.35 36.275C85.4175 36.9082 86.1897 37.9395 86.4968 39.1421C86.8039 40.3447 86.6207 41.62 85.9875 42.6875C85.3543 43.755 84.323 44.5272 83.1204 44.8343C81.9178 45.1414 80.6425 44.9582 79.575 44.325Z" fill="#11001C"/>
</svg>
