<svg width="87" height="58" viewBox="0 0 87 58" fill="none" xmlns="http://www.w3.org/2000/svg">
<path d="M14.2712 0H14.4496C15.8102 1.56091 17.3484 2.94343 18.7978 4.43744L28.6538 14.2935V14.4719C23.8824 19.2215 19.1323 24.0157 14.3604 28.7653C9.56615 23.9934 4.79422 19.1992 0 14.4273C0.245732 13.959 0.713556 13.6468 1.07034 13.2677C5.46318 8.83028 9.92292 4.45974 14.2712 0ZM43.0365 0H43.2149C43.3491 0.200688 43.4825 0.379078 43.6608 0.557467C48.2767 5.1287 52.826 9.76683 57.486 14.3158C57.3745 14.5833 57.1292 14.7617 56.9286 14.9624C52.3132 19.556 47.7192 24.1718 43.1034 28.7653C38.2868 24.0157 33.5595 19.1769 28.7207 14.4496C33.4034 9.56614 38.3314 4.86111 43.0365 0ZM71.8018 0H71.9802C72.8721 1.07034 73.9202 1.98458 74.879 2.98802C78.4914 6.60041 82.0819 10.1905 85.6939 13.8029C85.8727 14.0036 86.1626 14.182 86.229 14.4719C81.3902 19.1769 76.7075 24.0603 71.8464 28.7653L58.1327 15.0516C57.9097 14.8063 57.6198 14.6279 57.5083 14.3158C59.9389 11.9521 62.3025 9.52154 64.7108 7.13558C67.0745 4.74962 69.4827 2.43056 71.8018 0ZM28.9214 42.925C33.6264 38.22 38.3538 33.5149 43.0588 28.7876L43.259 28.8768C47.9863 33.6264 52.7137 38.376 57.4856 43.0811C57.33 43.4379 56.9955 43.6385 56.7497 43.9284C53.3162 47.3401 49.8817 50.7964 46.4477 54.2081C45.3328 55.2785 44.2625 56.4826 43.1257 57.486C41.4979 56.0143 40.0039 54.3642 38.4202 52.8479C35.2096 49.6369 32.0209 46.4259 28.7876 43.2372C28.8322 43.148 28.8768 43.0142 28.9214 42.925Z" fill="#11001C"/>
</svg>
