<svg width="620" height="356" viewBox="0 0 620 356" fill="none" xmlns="http://www.w3.org/2000/svg">
<g style="mix-blend-mode:difference">
<path fill-rule="evenodd" clip-rule="evenodd" d="M278.169 348.802L278.147 348.81L278.155 348.802L278.169 348.802ZM315.557 199.112C311.651 198.002 307.776 196.765 303.901 195.527C297.493 193.481 291.084 191.435 284.535 189.961C243.136 179.345 196.786 167.51 150.545 155.793C146.843 158.476 147.911 162.891 150.517 173.656L150.557 173.82C147.602 161.746 144.048 172.565 140.482 183.421C138.693 188.866 136.901 194.321 135.181 196.9C131.509 202.42 127.833 207.936 124.18 213.415C122.717 215.61 121.258 217.799 119.805 219.98C79.147 281.025 42.5565 335.975 42.5565 335.975C41.2837 337.567 40.8108 338.592 41.129 339.065C41.4385 339.539 42.7112 339.78 44.9299 339.78H166.044C180.293 339.78 192.169 337.877 201.663 334.072C211.165 330.267 218.759 324.249 224.46 316.002C230.161 307.764 239.182 283.668 239.182 283.668L234.969 348.81C234.969 348.81 182.426 349.198 156.301 349.043C130.176 348.879 104.06 348.802 77.9345 348.802H3.62687C2.35415 348.802 1.32222 348.087 0.539677 346.658C-0.25147 345.229 -0.174075 343.886 0.780461 342.621L0.771862 342.629L94.5744 203.081C98.2919 197.548 102.009 192.019 105.705 186.523L105.808 186.37C107.258 184.212 108.706 182.06 110.148 179.915C111.874 177.351 116.456 173.742 121.014 170.152C130.061 163.025 139.013 155.974 125.335 157.325C131.07 156.754 135.247 155.173 137.866 152.582C98.5822 142.642 59.7117 132.875 24.3686 124.104C59.9459 132.786 99.0981 142.219 138.678 151.685C141.593 148.078 141.949 142.813 139.747 135.889C144.059 149.446 145.969 141.813 148.722 130.815C149.906 126.085 151.245 120.732 152.999 116.175C155.38 112.629 157.681 109.208 159.886 105.928L159.909 105.895L159.929 105.865L159.931 105.862L159.948 105.836C161.591 103.393 163.181 101.03 164.711 98.7513C179.124 77.3154 188.386 63.5241 188.386 63.5241C189.65 61.9401 190.123 60.9071 189.813 60.4336C189.495 59.9601 188.222 59.7191 186.012 59.7191C155.295 59.7191 129.806 59.9601 109.546 60.4336C89.2771 60.9071 73.0501 61.9401 60.8646 63.5241C48.6707 65.1168 39.1683 67.8888 32.3662 71.8489C25.5554 75.8175 20.2582 80.9655 16.4572 87.3016C12.6563 93.6463 1.42542 113.937 1.42542 113.937L19.1574 33.0921C19.1574 33.0921 21.7115 46.0311 27.8429 49.268C31.231 51.05 39.0823 51.644 51.1129 51.644H224.477C226.06 51.644 227.16 52.3586 227.805 53.7876C228.433 55.2167 228.433 56.5683 227.805 57.8251C227.805 57.8251 213.513 79.2868 192.866 110.287L179.777 129.941C178.271 132.204 174.098 135.737 169.876 139.313C161.28 146.594 152.477 154.05 165.545 151.308C159.11 152.666 154.81 153.598 152.095 154.891C198.061 165.867 244.125 176.779 285.378 186.509C291.862 188.245 298.485 189.406 305.109 190.567C309.623 191.359 314.138 192.151 318.608 193.124C317.723 189.491 314.364 183.834 308.668 174.244L308.073 173.243C317.48 188.538 314.283 174.952 311.148 161.628L311.148 161.627C309.603 155.062 308.073 148.561 308.073 145.609V64.4883C308.073 53.4002 306.963 45.2305 304.745 40.005C302.526 34.7708 298.57 32.1623 292.869 32.1623C288.122 32.1623 268.171 36.9144 268.171 36.9144L336.055 0C336.055 0 336.09 65.7796 336.09 130.896V159.099C336.09 162.255 334.602 167.59 333.118 172.915C330.156 183.536 327.206 194.119 336.09 187.301C332.725 189.883 330.633 192.792 329.815 196.028C333.125 197.01 336.416 198.07 339.707 199.13C346.354 201.271 353.002 203.413 359.815 204.915C378.011 209.572 397.164 214.465 416.843 219.48C415.971 217.865 412.902 215.555 407.799 211.896C421.322 220.81 420.695 218.95 414.786 201.422L414.497 200.565C420.325 214.717 420.858 208.841 421.847 197.939C422.052 195.682 422.277 193.209 422.572 190.655C423.661 197.975 425.88 193.367 428.225 188.494C429.507 185.831 430.827 183.09 432.022 182.174C435.401 179.582 438.875 177.214 442.443 175.07C449.589 170.774 457.113 167.356 465.032 164.816C476.907 161.01 488.541 159.107 499.943 159.107C519.256 159.107 535.8 163.86 549.575 173.374C563.35 182.888 573.866 195.097 581.158 209.993C582.905 213.573 584.362 217.501 585.706 221.124L585.706 221.125L585.707 221.127C586.228 222.531 586.732 223.889 587.229 225.164C587.199 227.905 585.961 232.428 584.789 236.712C582.261 245.951 580.036 254.083 590.874 240.86C575.122 260.921 573.729 262.867 592.087 257.081C587.729 258.465 584.886 259.976 583.559 261.616C596.021 264.731 608.207 267.768 619.999 270.694C608.162 267.804 595.93 264.83 583.417 261.799C581.267 264.719 583.87 268.04 591.227 271.761C574.998 263.62 575.545 264.492 586.089 281.291L586.101 281.309C586.894 282.573 587.744 283.927 588.647 285.374C579.504 271.762 581.052 279.278 582.804 287.781C583.581 291.552 584.397 295.517 584.339 297.919C582.626 297.651 581.602 300.731 580.523 303.976C579.863 305.96 579.183 308.006 578.312 309.387C569.128 323.973 556.944 335.226 541.741 343.147C526.547 351.068 509.754 355.038 491.396 355.038L491.387 355.029C472.702 355.029 456.399 350.431 442.469 341.236C428.53 332.04 417.773 319.762 410.172 304.385C404.471 292.856 400.911 280.655 399.484 267.783C399.011 263.496 398.77 259.13 398.77 254.688C398.77 252.743 400.577 249.179 402.316 245.748C405.488 239.49 408.435 233.676 399.776 238.948C401.279 237.64 402.696 236.425 404.006 235.302C414.858 225.997 418.399 222.961 402.786 224.681C409.887 223.537 414.26 222.805 416.096 221.725C396.409 217.051 377.238 212.512 359.006 208.203C352.282 206.38 345.408 205.192 338.536 204.004C335.608 203.498 332.68 202.992 329.765 202.438C330.545 206.157 332.653 210.216 336.09 214.617C327.139 203.158 330.217 214.964 333.2 226.408C334.656 231.995 336.09 237.496 336.09 240.159V310.295C336.09 323.604 337.827 332.402 341.318 336.681C343.862 339.806 356.121 344.834 362.175 347.316L362.176 347.316C364.409 348.232 365.798 348.802 365.543 348.802C360.151 348.802 353.667 348.647 346.074 348.328C338.472 348.018 330.397 347.855 321.849 347.855C313.301 347.855 305.622 348.018 297.865 348.328C290.253 348.64 278.626 348.796 278.169 348.802C278.928 348.509 298.644 340.885 302.371 336.689C306.172 332.411 308.073 323.612 308.073 310.303V229.183C309.391 225.61 310.689 222.331 311.861 219.372C317.515 205.092 320.229 198.24 308.112 201.538C311.322 200.662 313.797 199.946 315.557 199.112ZM425.198 223.887C424.263 225.446 426.066 229.582 430.045 238.71L430.577 239.93C424.794 227.496 426.749 235.599 429.234 245.903L429.234 245.903C429.887 248.607 430.575 251.461 431.17 254.136C429.331 249.064 431.042 257.86 432.218 263.907C432.521 265.465 432.788 266.84 432.95 267.749C434.532 276.626 436.906 285.107 440.079 293.192C446.407 309.361 455.195 322.199 466.434 331.713C477.672 341.227 490.57 345.98 505.137 345.98L505.162 345.989C521.939 345.989 535.241 340.048 545.052 328.157C547.503 325.187 549.652 321.751 551.492 317.859C553.332 313.968 554.863 309.611 556.093 304.798C556.424 303.501 557.514 300.545 558.731 297.244L558.732 297.242C562.034 288.288 566.272 276.795 558.853 288.973C559.951 286.868 560.98 284.921 561.926 283.129C570.059 267.737 572.112 263.851 559.773 270.384C568.833 265.576 568.757 260.791 559.545 256.028C515.64 245.435 469.304 234.366 425.198 223.887ZM569.406 258.409C570.358 261.004 567.061 259.762 559.563 256.032C562.858 256.827 566.14 257.62 569.406 258.409ZM569.252 258.034C568.155 255.617 564.194 250.572 557.339 242.151C569.416 256.735 563.438 245.971 558.229 236.591C556.688 233.816 555.214 231.162 554.296 229.322C553.375 225.646 551.656 221.203 550.039 217.354C543.547 201.977 534.604 189.94 523.203 181.209C511.801 172.496 498.817 168.131 484.259 168.131C473.072 168.131 463.502 170.877 455.548 176.37C451.575 179.117 448.007 182.553 444.834 186.677C442.46 189.768 431.127 208.142 438.6 196.957C437.627 198.525 436.688 200.028 435.801 201.45L435.796 201.458C428.305 213.461 424.46 219.621 434.145 209.261L433.673 209.784C426.816 217.374 424.251 220.213 425.708 221.739C472.867 233.748 522.641 246.352 569.252 258.034Z" fill="#FBFAFF"/>
</g>
</svg>
